<svg width="20" height="20" viewBox="0 0 20 20" fill="none" xmlns="http://www.w3.org/2000/svg">
    <path fill-rule="evenodd" clip-rule="evenodd"
        d="M5.42251 17.3204C5.84451 17.3204 6.18751 17.6634 6.18751 18.0854C6.18751 18.5074 5.84451 18.8494 5.42251 18.8494C5.00051 18.8494 4.65851 18.5074 4.65851 18.0854C4.65851 17.6634 5.00051 17.3204 5.42251 17.3204Z"
        stroke="#008ECC" stroke-width="1.5" stroke-linecap="round" stroke-linejoin="round" />
    <path fill-rule="evenodd" clip-rule="evenodd"
        d="M16.6749 17.3204C17.0969 17.3204 17.4399 17.6634 17.4399 18.0854C17.4399 18.5074 17.0969 18.8494 16.6749 18.8494C16.2529 18.8494 15.9099 18.5074 15.9099 18.0854C15.9099 17.6634 16.2529 17.3204 16.6749 17.3204Z"
        stroke="#008ECC" stroke-width="1.5" stroke-linecap="round" stroke-linejoin="round" />
    <path
        d="M0.750122 0.750122L2.83012 1.11012L3.79312 12.5831C3.87112 13.5181 4.65212 14.2361 5.59012 14.2361H16.5021C17.3981 14.2361 18.1581 13.5781 18.2871 12.6901L19.2361 6.13212C19.3531 5.32312 18.7261 4.59912 17.9091 4.59912H3.16412"
        stroke="#008ECC" stroke-width="1.5" stroke-linecap="round" stroke-linejoin="round" />
    <path d="M12.1256 8.29514H14.8986" stroke="#008ECC" stroke-width="1.5" stroke-linecap="round"
        stroke-linejoin="round" />
</svg>