<svg width="13" height="15" viewBox="0 0 13 15" fill="none" xmlns="http://www.w3.org/2000/svg">
<path fill-rule="evenodd" clip-rule="evenodd" d="M0.5 6.2392C0.510806 3.05876 3.09782 0.489262 6.27826 0.500034C9.4587 0.510873 12.0282 3.09789 12.0174 6.27833V6.34355C11.9783 8.41094 10.8239 10.3218 9.4087 11.8153C8.59933 12.6558 7.69551 13.3998 6.71522 14.0327C6.4531 14.2594 6.06429 14.2594 5.80217 14.0327C4.3408 13.0815 3.0582 11.8806 2.01304 10.4848C1.08151 9.26776 0.552624 7.79052 0.5 6.25876V6.2392Z" stroke="#008ECC" stroke-linecap="round" stroke-linejoin="round"/>
<path d="M6.25869 8.19573C7.27802 8.19573 8.10434 7.3694 8.10434 6.35008C8.10434 5.33075 7.27802 4.50443 6.25869 4.50443C5.23937 4.50443 4.41304 5.33075 4.41304 6.35008C4.41304 7.3694 5.23937 8.19573 6.25869 8.19573Z" stroke="#008ECC" stroke-linecap="round" stroke-linejoin="round"/>
</svg>
