<svg width="15" height="15" viewBox="0 0 15 15" fill="none" xmlns="http://www.w3.org/2000/svg">
    <path fill-rule="evenodd" clip-rule="evenodd"
        d="M2.0331 3.72894C2.0331 2.79219 2.79285 2.03244 3.72885 2.03244H4.5006C4.9476 2.03244 5.37735 1.85544 5.69535 1.53969L6.2346 0.999693C6.89535 0.335943 7.96935 0.332943 8.6331 0.993693L8.63985 0.999693L9.17985 1.53969C9.4971 1.85544 9.92685 2.03244 10.3746 2.03244H11.1456C12.0824 2.03244 12.8421 2.79219 12.8421 3.72894V4.49919C12.8421 4.94769 13.0191 5.37669 13.3349 5.69469L13.8749 6.23469C14.5386 6.89544 14.5424 7.96869 13.8816 8.63319L13.8749 8.63994L13.3349 9.17994C13.0191 9.49644 12.8421 9.92694 12.8421 10.3739V11.1457C12.8421 12.0824 12.0824 12.8414 11.1456 12.8414H10.3746C9.92685 12.8414 9.4971 13.0192 9.17985 13.3349L8.63985 13.8742C7.97985 14.5387 6.90585 14.5417 6.24135 13.8809C6.2391 13.8787 6.23685 13.8764 6.2346 13.8742L5.69535 13.3349C5.37735 13.0192 4.9476 12.8414 4.5006 12.8414H3.72885C2.79285 12.8414 2.0331 12.0824 2.0331 11.1457V10.3739C2.0331 9.92694 1.85535 9.49644 1.5396 9.17994L1.00035 8.63994C0.33585 7.97919 0.332851 6.90519 0.9936 6.24144L1.00035 6.23469L1.5396 5.69469C1.85535 5.37669 2.0331 4.94769 2.0331 4.49919V3.72894Z"
        stroke="#008ECC" stroke-linecap="round" stroke-linejoin="round" />
    <path d="M5.50989 9.36422L9.36489 5.50922" stroke="#008ECC" stroke-linecap="round"
        stroke-linejoin="round" />
    <path
        d="M9.36243 9.9289C9.21243 9.9289 9.06993 9.8689 8.96493 9.7639C8.91243 9.7114 8.87493 9.6439 8.84493 9.5764C8.81493 9.5089 8.79993 9.44215 8.79993 9.3664C8.79993 9.2914 8.81493 9.2164 8.84493 9.1489C8.87493 9.0814 8.91243 9.0214 8.96493 8.9689C9.17493 8.7589 9.54993 8.7589 9.75993 8.9689C9.81243 9.0214 9.85743 9.0814 9.88743 9.1489C9.90993 9.2164 9.92493 9.2914 9.92493 9.3664C9.92493 9.44215 9.90993 9.5089 9.88743 9.5764C9.85743 9.6439 9.81243 9.7114 9.75993 9.7639C9.65493 9.8689 9.51243 9.9289 9.36243 9.9289Z"
        fill="#008ECC" />
    <path
        d="M5.50732 6.07418C5.43232 6.07418 5.36482 6.05843 5.29732 6.02843C5.22982 5.99843 5.16232 5.96168 5.10982 5.90918C5.05732 5.84918 5.01982 5.78918 4.98982 5.72168C4.95982 5.65343 4.94482 5.58668 4.94482 5.51168C4.94482 5.43593 4.95982 5.36168 4.98982 5.29418C5.01982 5.22668 5.05732 5.15918 5.10982 5.11418C5.32732 4.90343 5.69482 4.90343 5.90482 5.11418C6.00982 5.21843 6.06982 5.36168 6.06982 5.51168C6.06982 5.58668 6.06232 5.65343 6.03232 5.72168C6.00232 5.78918 5.95732 5.84918 5.90482 5.90918C5.85232 5.96168 5.79232 5.99843 5.72482 6.02843C5.65732 6.05843 5.58232 6.07418 5.50732 6.07418Z"
        fill="#008ECC" />
</svg>